Coordinates
version=1
nRows=11
nColumns=33
inDegrees=yes

Units are S.I. units (second, meters, Newtons, ...)
Angles are in degrees.

endheader
time	ground_thorax_rot_x	ground_thorax_rot_y	ground_thorax_rot_z	ground_thorax_tx	ground_thorax_ty	ground_thorax_tz	clav_prot_r	clav_elev_r	scapula_abduction_r	scapula_elevation_r	scapula_upward_rot_r	scapula_winging_r	shoulder_elv_r	plane_of_elev_r	axial_rot_r	elbow_flexion_r	pro_sup_r	wrist_flex_r	wrist_dev_r	clav_prot_l	clav_elev_l	scapula_abduction_l	scapula_elevation_l	scapula_upward_rot_l	scapula_winging_l	shoulder_elv_l	plane_of_elev_l	axial_rot_l	elbow_flexion_l	pro_sup_l	wrist_flex_l	wrist_dev_l	
9.8700	-33.642811	-30.999585	37.557441	-86.753389	826.888211	-39.752010	45.000000	-45.000000	40.428171	-45.000000	-40.445876	-1090.650080	-2257.139997	-90.000000	27.638996	1060.570792	109.806881	12.864301	10.885916	-2.895012	38.472026	-35.214307	-45.000000	-26.469918	-3498.324774	-2260.087797	142.990619	180.000000	1437.190924	-321.137328	15.498192	-22.711700	
9.8800	-33.825177	-30.690354	37.121890	-87.874326	828.690863	-39.909925	45.000000	-45.000000	40.484205	-45.000000	-40.145729	-1090.679194	-2257.058025	-90.000000	27.576067	1060.464830	108.826456	12.921648	10.944457	-2.874684	38.492178	-35.348725	-45.000000	-26.258187	-3498.267433	-2260.032615	143.004920	180.000000	1437.219951	-321.276839	15.506096	-22.827020	
9.8900	-33.987040	-30.392645	36.706493	-88.953024	830.468648	-40.056929	45.000000	-45.000000	40.550920	-45.000000	-39.862238	-1090.710959	-2256.977186	-90.000000	27.514257	1060.354338	107.841935	12.987328	11.002869	-2.864434	38.514269	-35.474977	-45.000000	-26.061508	-3498.217535	-2259.976319	143.024124	180.000000	1437.251868	-321.425473	15.511005	-22.940890	
9.9000	-34.134501	-30.097057	36.303181	-89.989101	832.215646	-40.190345	45.000000	-45.000000	40.623044	-45.000000	-39.583306	-1090.745528	-2256.898356	-90.000000	27.454460	1060.245275	106.864069	13.058737	11.057477	-2.855780	38.537958	-35.596696	-45.000000	-25.865789	-3498.172201	-2259.922640	143.046144	180.000000	1437.289894	-321.581084	15.508282	-23.049526	
9.9100	-34.272919	-29.805624	35.906797	-90.981932	833.926377	-40.308376	45.000000	-45.000000	40.692852	-45.000000	-39.308728	-1090.773643	-2256.820192	-90.000000	27.395317	1060.138996	105.904858	13.133335	11.107621	-2.851412	38.562111	-35.717406	-45.000000	-25.670354	-3498.128803	-2259.869516	143.070289	180.000000	1437.329423	-321.740401	15.499549	-23.152881	
9.9200	-34.408282	-29.511681	35.514511	-91.930912	835.596021	-40.410495	45.000000	-45.000000	40.750538	-45.000000	-39.029712	-1090.793494	-2256.743675	-90.000000	27.337702	1060.044733	104.978910	13.206124	11.150146	-2.843604	38.585431	-35.841740	-45.000000	-25.465877	-3498.084001	-2259.816341	143.092033	180.000000	1437.371996	-321.900202	15.483100	-23.249746	
9.9300	-34.540562	-29.218612	35.126314	-92.835825	837.220321	-40.497501	45.000000	-45.000000	40.796399	-45.000000	-38.751350	-1090.802613	-2256.666593	-90.000000	27.279335	1059.959604	104.096449	13.278014	11.186519	-2.839374	38.607193	-35.969045	-45.000000	-25.254736	-3498.037539	-2259.762855	143.111216	180.000000	1437.416260	-322.058069	15.462355	-23.343723	
9.9400	-34.658538	-28.933465	34.757782	-93.697131	838.795556	-40.571146	45.000000	-45.000000	40.846568	-45.000000	-38.481438	-1090.816070	-2256.589528	-90.000000	27.220863	1059.878591	103.261150	13.348730	11.217919	-2.839802	38.629358	-36.087954	-45.000000	-25.042888	-3497.994419	-2259.710596	143.128177	180.000000	1437.467066	-322.213103	15.435189	-23.432339	
9.9500	-34.766038	-28.656895	34.405509	-94.516030	840.318102	-40.633505	45.000000	-45.000000	40.892952	-45.000000	-38.224777	-1090.826021	-2256.511356	-90.000000	27.161141	1059.801242	102.477158	13.417670	11.245344	-2.845439	38.652827	-36.203129	-45.000000	-24.832637	-3497.952869	-2259.659715	143.143205	180.000000	1437.519611	-322.363188	15.403528	-23.516148	
9.9600	-34.857843	-28.392186	34.076354	-95.294454	841.784442	-40.686341	45.000000	-45.000000	40.945710	-45.000000	-37.983769	-1090.842055	-2256.433263	-90.000000	27.101416	1059.724268	101.745119	13.484010	11.270707	-2.854942	38.678814	-36.307869	-45.000000	-24.623839	-3497.914384	-2259.613035	143.157112	180.000000	1437.577782	-322.507588	15.365628	-23.593281	
9.9700	-34.941866	-28.135595	33.760598	-96.034688	843.190700	-40.730690	45.000000	-45.000000	40.993839	-45.000000	-37.755940	-1090.855104	-2256.355289	-90.000000	27.041648	1059.649478	101.067635	13.547606	11.294810	-2.867510	38.707033	-36.410093	-45.000000	-24.413126	-3497.875570	-2259.571419	143.170241	180.000000	1437.636357	-322.644108	15.323704	-23.665527	
